<mxfile host="app.diagrams.net" modified="2023-10-17T01:41:35.470Z" agent="Mozilla/5.0 (Windows NT 10.0; Win64; x64) AppleWebKit/537.36 (KHTML, like Gecko) Chrome/118.0.0.0 Safari/537.36" version="22.0.4" etag="LFI0vMj85a5Xr01cJKOp" type="github">
  <diagram name="페이지-1" id="P0m73MnGaj920t16pxhU">
    <mxGraphModel>
      <root>
        <mxCell id="0" />
        <mxCell id="1" parent="0" />
      </root>
    </mxGraphModel>
  </diagram>
</mxfile>
